<svg aria-hidden="true" style="position: absolute; width: 0; height: 0; overflow: hidden;" version="1.1" xmlns="http://www.w3.org/2000/svg" xmlns:xlink="http://www.w3.org/1999/xlink">
<defs>
<symbol id="icon-close" viewBox="0 0 32 32">
<path d="M31.439 3.166l-3.166-3.166-12.553 12.553-12.553-12.553-3.166 3.166 12.553 12.553-12.553 12.553 3.166 3.166 12.553-12.553 12.553 12.553 3.166-3.166-12.553-12.553 12.553-12.553z"></path>
</symbol>
<symbol id="icon-user_femal" viewBox="0 0 32 32">
<path stroke-linejoin="miter" stroke-linecap="round" stroke-miterlimit="10" stroke-width="1.28" d="M31.36 16c0 8.483-6.877 15.36-15.36 15.36s-15.36-6.877-15.36-15.36c0-8.483 6.877-15.36 15.36-15.36s15.36 6.877 15.36 15.36z"></path>
<path d="M19.157 22.738c-0.017-0.184-0.029-0.479-0.038-0.785 2.781-0.285 4.732-0.952 4.732-1.729-0.008-0.001-0.007-0.032-0.007-0.045-2.079-1.873 1.802-15.186-5.423-14.916-0.454-0.384-1.248-0.725-2.387-0.725-9.786 0.74-5.459 13.312-7.689 15.685-0.001 0.001-0.003 0.001-0.004 0.001 0 0.001 0.001 0.003 0.001 0.004s-0.001 0.001-0.001 0.001 0.001 0 0.001 0.001c0.009 0.761 1.894 1.416 4.594 1.708-0.008 0.186-0.024 0.415-0.059 0.8-0.82 2.206-5.093 2.344-7.462 4.539 1.295 1.13 5.806 4.165 10.646 4.165s8.859-2.297 10.461-4.229c-2.374-2.132-6.552-2.291-7.364-4.475z"></path>
</symbol>
</defs>
</svg>
