<svg aria-hidden="true" style="position: absolute; width: 0; height: 0; overflow: hidden;" version="1.1" xmlns="http://www.w3.org/2000/svg" xmlns:xlink="http://www.w3.org/1999/xlink">
<defs>
<symbol id="icon-face_unlock_icon" viewBox="0 0 32 32">
<path d="M19.593 22.807c-0.993 0.767-2.267 1.193-3.593 1.193s-2.6-0.427-3.593-1.193c-0.287-0.227-0.707-0.173-0.933 0.12s-0.173 0.707 0.12 0.933c1.22 0.947 2.787 1.473 4.407 1.473s3.187-0.527 4.407-1.473c0.293-0.227 0.347-0.647 0.12-0.933-0.227-0.293-0.647-0.347-0.933-0.12z"></path>
<path d="M12.667 16.667c0 0.736-0.597 1.333-1.333 1.333s-1.333-0.597-1.333-1.333c0-0.736 0.597-1.333 1.333-1.333s1.333 0.597 1.333 1.333z"></path>
<path d="M16 0c-8.833 0-16 7.167-16 16s7.167 16 16 16 16-7.167 16-16-7.167-16-16-16zM26.613 19.76c-1.453 4.987-5.693 8.607-10.72 8.607-5.033 0-9.28-3.633-10.727-8.633-1.587-0.133-2.833-1.573-2.833-3.347 0-1.693 1.14-3.087 2.62-3.327v-0.007c2.787-1.953 5.073-4.653 5.46-6.733l0.007 0.007v-0.020c1.807 3.5 8.4 6.92 15.767 6.747 0.133-0.020 0.26-0.047 0.393-0.047 1.7 0 3.080 1.513 3.080 3.38 0.007 1.853-1.36 3.36-3.047 3.373z"></path>
<path d="M22 16.667c0 0.736-0.597 1.333-1.333 1.333s-1.333-0.597-1.333-1.333c0-0.736 0.597-1.333 1.333-1.333s1.333 0.597 1.333 1.333z"></path>
</symbol>
<symbol id="icon-close" viewBox="0 0 32 32">
<path fill="none"  stroke-linejoin="miter" stroke-linecap="butt" stroke-miterlimit="4" stroke-width="2" d="M2.519 2l26.963 28"></path>
<path fill="none"  stroke-linejoin="miter" stroke-linecap="butt" stroke-miterlimit="4" stroke-width="2" d="M2 29.481l28-26.963"></path>
</symbol>
</defs>
</svg>
